<mxfile host="app.diagrams.net" modified="2024-04-02T22:57:48.131Z" agent="Mozilla/5.0 (Windows NT 10.0; Win64; x64) AppleWebKit/537.36 (KHTML, like Gecko) Chrome/123.0.0.0 Safari/537.36" version="24.2.1" etag="0DONayDUWCfDrF_UgVij" type="github">
  <diagram name="Page-1" id="2dnHM4DBmgZs-eMr0MF_">
    <mxGraphModel>
      <root>
        <mxCell id="0" />
        <mxCell id="1" parent="0" />
      </root>
    </mxGraphModel>
  </diagram>
</mxfile>
